<svg width="262" height="82" viewBox="0 0 262 82" fill="none" xmlns="http://www.w3.org/2000/svg">
<g clip-path="url(#clip0_3090_11279)">
<path d="M12.5287 65.3208C12.2481 64.9396 12.0777 64.5977 11.9995 64.2949C11.7829 64.733 12.0386 65.1605 12.5287 65.3208Z" fill="#F2F2F2"/>
<path d="M88.3036 65.0751C87.778 64.7581 87.3412 66.279 86.7658 65.8587C86.1941 65.4348 86.1692 66.3645 85.5726 67.7608C84.9759 69.1571 83.0262 66.4073 81.7192 68.1633C80.4123 69.9194 79.4499 70.2542 76.8822 69.2426C72.5956 67.4545 72.0132 73.3425 67.7088 69.7271C64.335 67.8855 61.5009 74.6711 57.985 70.8063C55.9855 68.3913 52.601 71.7823 51.152 71.6505C51.152 71.6505 50.076 71.5651 48.6767 70.7636C45.1892 67.8036 42.9163 74.1867 39.2299 71.0806C35.0534 66.6602 33.6044 72.5874 30.1027 70.3611C26.981 66.4821 23.1135 72.2881 20.5848 68.1633C19.2779 66.4073 17.3282 69.1571 16.7315 67.7608C16.1349 66.3645 16.1136 65.4348 15.5383 65.8587C14.9665 66.2826 14.5296 64.7581 14.0005 65.0751C13.4429 65.4099 12.9102 65.4491 12.5195 65.3209C13.8371 67.1268 17.4986 69.8517 24.4772 74.0157C33.7038 78.5715 35.3553 78.1797 41.8118 80.4843C44.241 79.7719 44.7914 81.3748 47.2455 81.2644C48.6199 81.1575 48.2328 80.2065 49.561 80.7586C50.8892 81.3071 50.559 81.3534 51.1414 81.4995C51.7274 81.3534 51.3935 81.3107 52.7218 80.7586C54.0536 80.21 53.6629 81.1611 55.0373 81.268C57.4914 81.3784 58.0454 79.7719 60.471 80.4843C66.9311 78.1726 68.5754 78.5751 77.8056 74.0157C84.7486 69.8767 88.403 67.1589 89.7419 65.3529C89.2518 65.531 88.673 65.3066 88.2858 65.0751H88.3036ZM60.5101 79.0275C58.8587 78.7746 59.7536 78.1405 57.6441 79.2804C53.9328 81.3036 54.7177 77.4922 51.1556 79.6615C47.6184 77.4958 48.3606 81.3 44.6671 79.2804C42.5576 78.1405 43.4525 78.7746 41.8011 79.0275C36.9179 77.2999 25.2195 75.1093 18.4788 69.3459C23.8522 73.4351 26.8886 70.1438 29.9677 72.1991C31.7328 73.6773 34.3005 75.9178 36.3639 76.8689C36.3639 76.8689 32.0773 72.9792 32.9936 72.6835C33.9098 72.3879 36.2715 70.6104 37.1914 72.3451C38.1076 74.0798 39.4856 76.7407 41.0447 78.137C37.3299 70.1046 39.3755 74.6213 44.0492 73.5918C45.1963 72.8082 45.2886 76.9935 47.6503 78.8565C46.457 76.6801 45.4271 71.9248 46.9152 72.4093C48.4068 72.8937 49.4793 73.8626 51.1556 73.8626C52.8319 73.8626 53.908 72.8937 55.396 72.4093C56.8876 71.9213 55.8541 76.6801 54.6609 78.8565C57.0226 76.9971 57.1149 72.8118 58.262 73.5954C62.9179 74.6319 64.992 70.0904 61.2665 78.1405C62.8256 76.7442 64.2036 74.0834 65.1198 72.3487C66.0361 70.614 68.3978 72.3914 69.3176 72.6871C70.2339 72.9827 65.9473 76.8724 65.9473 76.8724C68.0107 75.9214 70.5784 73.6809 72.3435 72.1991C75.5078 70.1296 78.3951 73.4565 83.8324 69.3459C77.1308 75.095 65.3684 77.3106 60.5101 79.0275Z" fill="#F2F2F2"/>
<path d="M40.4728 58.2616C39.6346 56.6694 38.697 55.6863 37.9477 55.0879C37.7985 55.0024 37.6458 54.9133 37.4896 54.8136C34.3714 52.826 20.6131 45.8089 19.6045 44.751C9.7422 30.8983 31.1112 46.6887 35.5256 49.4706C35.4439 49.3388 35.3658 49.207 35.2841 49.0717C33.3344 47.5364 28.9697 44.1134 25.887 41.7517C21.8064 38.6243 18.6421 36.4657 18.5498 33.5093C18.4716 31.0265 26.3771 37.4453 33.1497 43.0234C33.0929 42.6672 33.0503 42.3074 33.0148 41.9441C28.0392 36.7721 21.089 29.6089 21.8988 26.9979C22.6339 24.6292 22.9074 22.5169 25.4751 25.224C26.8033 26.6239 30.376 31.4504 33.5191 35.7854C33.6078 35.4434 33.7037 35.1015 33.8138 34.7595C30.2553 28.925 26.4126 22.1322 27.8155 21.1242C29.4669 21.2916 29.6054 16.2193 30.5678 17.4054C31.1502 18.125 33.9452 22.5454 36.9142 28.6079C37.2552 28.1235 37.6174 27.6391 38.0081 27.1546C36.2181 20.9318 34.62 15.1151 34.8757 15.0367C36.1152 14.6556 38.04 16.1374 39.5068 14.5309C40.2916 13.6725 41.2967 16.8035 42.5859 22.4243C43.321 21.7689 44.0171 21.1776 44.635 20.6647C44.2231 15.9343 44.0881 12.1942 44.7345 11.7383C44.7522 11.7276 44.7664 11.7169 44.7842 11.7027C44.7522 10.7124 44.7593 9.75425 44.8233 8.84594V8.82812C43.7401 9.50134 42.7492 10.0606 41.5204 9.89673C39.5956 9.47285 38.104 9.36955 36.6798 10.8692C34.968 15.0118 30.2517 11.8309 27.6663 15.457C25.9723 23.069 21.9343 17.5657 20.258 23.2792C19.6685 30.738 16.0389 26.9552 15.9466 31.9883C15.9466 34.6954 17.186 35.2012 15.9466 37.1033C12.4804 40.3483 16.5467 41.9726 16.7279 45.0502C16.5681 49.0182 20.2367 48.2025 21.4513 50.7565C21.9094 52.1955 24.7079 52.5731 28.5151 53.3781C32.3222 54.1831 38.6509 57.8164 36.9071 60.1851C35.1634 62.5539 34.3394 59.4656 31.9067 60.7337C21.9449 61.9661 11.1166 60.9189 11.9867 64.2957C12.3134 63.6367 13.7091 62.9528 17.0084 63.1202C22.9251 63.3945 21.6537 63.106 24.4061 62.9599C27.1584 62.8103 31.0473 64.1247 32.102 63.6794C33.1568 63.2342 33.7606 62.9172 35.6641 63.4871C37.5677 64.057 39.2724 62.2582 39.8903 62.1941C40.5083 62.13 42.9943 66.6252 50.5801 66.6252C43.6442 65.8309 42.1881 61.5494 40.4621 58.2652L40.4728 58.2616Z" fill="#F2F2F2"/>
<path d="M70.3922 60.7299C67.963 59.4619 67.1355 62.5466 65.3918 60.1814C63.648 57.8127 69.9767 54.1794 73.7838 53.3744C77.591 52.5694 80.3895 52.1918 80.8476 50.7528C82.0658 48.1953 85.7166 49.0181 85.571 45.0464C85.7664 41.9546 89.8008 40.3517 86.3523 37.0996C85.1129 35.1975 86.3523 34.6881 86.3523 31.9846C86.2494 26.9372 82.6375 30.7485 82.0409 23.2755C81.2596 19.8524 79.2424 20.6966 76.9055 19.5567C74.5651 18.4169 76.0106 17.6546 74.6362 15.4569C72.0578 11.8272 67.3344 15.008 65.6226 10.869C64.202 9.36939 62.7104 9.47269 60.7856 9.89657C59.7699 10.0284 58.9211 9.67573 58.0474 9.16992C58.0261 9.47982 58.0012 9.79683 57.9657 10.1174C57.8982 10.7016 57.8024 11.2822 57.6816 11.8557C58.4594 13.0347 57.7597 20.3867 56.9749 27.614C57.5182 27.5926 58.051 27.614 58.573 27.6639C60.434 18.8515 61.7977 13.4265 62.7992 14.5236C64.266 16.1301 66.1944 14.6518 67.4303 15.0294C67.7215 15.1185 65.6333 22.5666 63.5805 29.6301C63.9037 29.8759 64.2162 30.143 64.5146 30.4351C67.789 23.4393 71.0989 18.1854 71.7417 17.3982C72.7042 16.2156 72.8427 21.2879 74.4941 21.1169C75.9999 22.1855 71.4683 29.9328 67.7251 36.0061C67.8103 36.3088 67.8884 36.6187 67.9524 36.9286C71.2658 32.3372 75.382 26.7413 76.8309 25.2168C79.3986 22.5096 79.6756 24.6255 80.4072 26.9906C81.288 29.8331 72.9741 38.0685 68.0198 43.2619C67.9701 43.5397 67.9133 43.8175 67.8494 44.0918C74.8635 38.3142 83.8379 30.8554 83.7562 33.502C83.6639 36.462 80.4996 38.617 76.419 41.7445C72.3384 44.8719 66.0097 49.8623 66.0097 49.8623C66.3613 50.3146 93.6221 29.4413 82.705 44.7472C81.6964 45.8051 67.9382 52.8223 64.82 54.8099C59.159 58.8243 60.9809 62.0408 57.5538 64.3347C55.1778 66.1335 51.7188 66.6179 51.7188 66.6179C59.3011 66.6179 61.7871 62.1227 62.4086 62.1868C65.857 64.8084 67.2669 62.34 70.1969 63.6722C71.2516 64.1174 75.1405 62.8066 77.8928 62.9526C80.6452 63.1022 79.3738 63.3872 85.2905 63.1129C89.2006 62.9313 90.1098 63.7968 90.2767 64.4095C91.4273 60.8867 80.4321 61.9766 70.3957 60.7299H70.3922Z" fill="#F2F2F2"/>
<path d="M118.272 40.1057H108.246V31.2363H105.43V53.0964H108.246V42.8876H118.272V53.0964H121.088V31.2363H118.272V40.1057Z" fill="#F2F2F2"/>
<path d="M139.608 31.2363L129.312 53.0964H132.448L135.733 46.1398H144.367L147.684 53.0964H150.742L140.578 31.2363H139.612H139.608ZM143.12 43.3828H137.033L140.084 36.9177L143.12 43.3828Z" fill="#F2F2F2"/>
<path d="M178.562 31.2363L170.291 48.138L162.041 31.4322L161.941 31.2363H161.071L157.953 53.0964H160.705L162.662 38.6987L169.79 53.0964H170.77L177.809 38.8127L179.777 53.0964H182.565L179.429 31.2363H178.562Z" fill="#F2F2F2"/>
<path d="M200.042 31.2363L189.746 53.0964H192.882L196.167 46.1398H204.801L208.118 53.0964H211.175L201.011 31.2363H200.045H200.042ZM203.554 43.3828H197.467L200.518 36.9177L203.554 43.3828Z" fill="#F2F2F2"/>
<path d="M225.906 39.6355L220.71 31.2363H217.453L224.542 42.7345V53.0964H227.33V42.7309L234.287 31.2363H231.02L225.906 39.6355Z" fill="#F2F2F2"/>
<path d="M251.836 31.2363H250.87L240.574 53.0964H243.71L246.995 46.1398H255.629L258.946 53.0964H262.004L251.839 31.2363H251.836ZM254.379 43.3828H248.291L251.342 36.9177L254.379 43.3828Z" fill="#F2F2F2"/>
<path d="M105.43 76.3577L107.294 63.2852H107.507L112.806 74.0139L118.055 63.2852H118.265L120.14 76.3577H118.861L117.572 67.0075L112.962 76.3577H112.628L107.965 66.9362L106.687 76.3577H105.43V76.3577Z" fill="#F2F2F2"/>
<path d="M126.371 63.2852H127.674V71.1786C127.674 72.1154 127.692 72.6995 127.728 72.9311C127.792 73.4476 127.944 73.8786 128.179 74.2241C128.417 74.5696 128.779 74.8617 129.269 75.0968C129.759 75.3319 130.253 75.4494 130.75 75.4494C131.18 75.4494 131.595 75.3568 131.989 75.1751C132.384 74.9935 132.718 74.737 132.98 74.4093C133.247 74.0852 133.442 73.6898 133.566 73.2267C133.655 72.8954 133.698 72.2151 133.698 71.1821V63.2887H135.001V71.1821C135.001 72.3505 134.887 73.2944 134.66 74.0139C134.433 74.7334 133.978 75.3604 133.296 75.8947C132.615 76.429 131.787 76.6961 130.821 76.6961C129.77 76.6961 128.868 76.4432 128.118 75.941C127.369 75.4387 126.865 74.7691 126.613 73.9427C126.453 73.4333 126.375 72.5143 126.375 71.1892V63.2958L126.371 63.2852Z" fill="#F2F2F2"/>
<path d="M140.492 73.9205L141.6 73.2544C142.382 74.6935 143.28 75.413 144.303 75.413C144.74 75.413 145.152 75.3097 145.535 75.1067C145.919 74.9037 146.21 74.6294 146.412 74.2839C146.615 73.9419 146.714 73.575 146.714 73.1903C146.714 72.7522 146.565 72.3212 146.27 71.9009C145.862 71.3203 145.12 70.6221 144.037 69.8029C142.95 68.98 142.271 68.3852 142.009 68.0183C141.547 67.4021 141.316 66.736 141.316 66.02C141.316 65.4501 141.451 64.9336 141.725 64.4634C141.994 63.9968 142.378 63.6263 142.872 63.3556C143.365 63.0849 143.902 62.9531 144.48 62.9531C145.095 62.9531 145.67 63.1063 146.203 63.4126C146.739 63.719 147.304 64.2782 147.9 65.0975L146.839 65.906C146.349 65.2542 145.929 64.8232 145.585 64.6166C145.24 64.41 144.864 64.3067 144.456 64.3067C143.93 64.3067 143.5 64.467 143.166 64.7876C142.833 65.1081 142.666 65.5 142.666 65.9701C142.666 66.2551 142.726 66.5294 142.843 66.7965C142.96 67.0637 143.177 67.3522 143.49 67.6692C143.66 67.8366 144.221 68.2712 145.173 68.9765C146.302 69.81 147.077 70.5544 147.496 71.2063C147.915 71.8581 148.124 72.5135 148.124 73.169C148.124 74.1164 147.766 74.9393 147.048 75.641C146.331 76.3391 145.457 76.6882 144.431 76.6882C143.639 76.6882 142.921 76.4781 142.279 76.0542C141.636 75.6303 141.043 74.9215 140.499 73.9241L140.492 73.9205Z" fill="#F2F2F2"/>
<path d="M154.324 63.2852H155.628V76.3577H154.324V63.2852Z" fill="#F2F2F2"/>
<path d="M174.379 65.7105L173.353 66.5012C172.785 65.7603 172.106 65.1975 171.311 64.8164C170.515 64.4353 169.642 64.2429 168.693 64.2429C167.653 64.2429 166.69 64.4923 165.806 64.9945C164.918 65.4967 164.233 66.1664 163.746 67.0106C163.26 67.8548 163.015 68.8058 163.015 69.8602C163.015 71.4524 163.558 72.7846 164.648 73.8496C165.739 74.9147 167.113 75.449 168.772 75.449C170.597 75.449 172.124 74.733 173.353 73.2975L174.379 74.0812C173.729 74.9111 172.92 75.5523 171.947 76.0047C170.973 76.457 169.89 76.685 168.69 76.685C166.41 76.685 164.609 75.9227 163.295 74.4018C162.191 73.1159 161.637 71.5628 161.637 69.7462C161.637 67.8334 162.304 66.2234 163.643 64.9161C164.982 63.6089 166.658 62.957 168.672 62.957C169.89 62.957 170.988 63.1992 171.968 63.6801C172.948 64.1646 173.751 64.8413 174.379 65.7105V65.7105Z" fill="#F2F2F2"/>
<path d="M6.09426 45.2877C5.38753 45.0348 4.44285 45.3696 3.88527 45.7187C3.27442 46.0998 2.79143 46.6306 2.0989 46.9155C1.54487 47.1435 0.909167 47.0509 0.252152 46.8514L0 47.0473L6.14753 52.3868C5.88118 52.369 5.59351 52.426 5.29164 52.5827C4.10546 53.1526 3.49816 54.0467 3.50882 54.6771C3.53013 55.8704 5.075 56.2373 6.07295 55.7422C7.13128 55.2186 8.18251 54.0182 7.36923 53.0707C7.32661 53.0208 7.28044 52.9745 7.23427 52.9282H7.24138L3.72546 49.872C3.94564 49.8364 4.15873 49.6369 4.31499 49.5229C4.63107 49.2914 4.90453 49.0242 5.11407 48.725C5.32005 48.4294 5.43014 48.1622 5.5793 47.8417C5.83501 47.2895 6.22567 46.9903 6.87558 46.912C7.07446 46.887 7.17035 46.8692 7.34792 46.9547C7.53615 47.0473 7.71017 47.1756 7.70661 47.3074C7.8025 46.9084 7.14194 46.6804 6.80455 46.6911C6.24342 46.7089 5.75688 46.944 5.38042 47.2539C5.13893 47.4534 4.80509 47.8238 4.60976 48.0518C4.4464 48.2406 4.27948 48.4935 4.05929 48.6645C3.81424 48.8533 3.69349 49.0029 3.349 49.0563C3.2105 49.0777 2.9761 49.0884 2.78433 49.0563L2.10245 48.465C2.33684 48.5647 2.6032 48.5291 2.78077 48.4864C3.1004 48.408 3.28153 48.1266 3.4733 47.9165C3.832 47.5211 4.11611 47.1114 4.41799 46.6911C4.7021 46.2922 5.44435 45.5477 6.14043 45.7614C6.49202 45.8683 6.49913 46.1711 6.64829 46.3955C6.84006 45.993 6.59501 45.4765 6.09071 45.2948L6.09426 45.2877Z" fill="#F2F2F2"/>
<path d="M93.5342 18.5338C92.5291 17.7146 91.3678 17.451 90.7001 17.6184C89.4323 17.9354 89.553 19.2819 90.416 19.9622C91.3287 20.6853 92.9624 21.2338 93.7082 20.3362C93.7472 20.2899 93.7828 20.24 93.8183 20.1902H93.8254L97.4194 13.9709C97.9841 14.3912 99.0034 14.6904 99.529 14.9469C100.797 15.5631 101.916 16.3254 103.134 16.995L100.264 21.964C100.193 21.7432 100.037 21.5259 99.7705 21.3229C98.7654 20.5072 97.6041 20.24 96.9364 20.4074C95.6686 20.7245 95.7893 22.0709 96.6523 22.7512C97.5686 23.4743 99.1987 24.0229 99.9445 23.1253C99.9836 23.079 100.019 23.0291 100.055 22.9792H100.062L103.45 17.1162C103.894 16.7956 104.377 16.2185 104.568 15.7911C103.805 15.214 102.885 14.7296 101.987 14.295C101.621 14.1169 97.9202 12.2754 97.9202 12.2754C97.5295 12.8346 97.114 13.6539 97.114 13.6539C97.1318 13.6824 97.1531 13.7109 97.1779 13.7394L94.0385 19.175C93.9674 18.9542 93.8112 18.7369 93.5448 18.5338H93.5342Z" fill="#F2F2F2"/>
<path d="M51.0932 31.2828C50.2906 28.882 49.5164 26.4527 48.8345 24.1018C46.9345 26.0787 45.1197 28.0236 43.7418 30.1252C36.5963 40.9643 46.1923 55.3335 57.4361 49.043C55.632 43.8781 53.6609 38.7773 51.8817 33.6017C48.8452 36.3017 48.6214 40.9715 51.3916 43.9279C46.899 40.975 47.9644 33.8261 51.0932 31.2864V31.2828ZM60.7212 52.32C61.4954 57.2071 57.7238 60.7477 53.5686 59.3906C57.3651 59.469 58.8141 57.3246 58.569 53.7555C42.3425 62.3114 25.7218 43.6145 40.1655 27.2435C43.0563 23.9665 46.3272 21.555 47.7904 20.2513C46.6504 15.6456 46.3237 11.9019 46.5332 8.96329C47.4068 -3.31138 57.5568 -1.56956 56.2606 9.92503C55.7527 14.4203 53.2738 19.0901 50.6458 22.1285C51.3667 24.7216 52.2261 27.4572 53.1353 30.1786C66.201 25.1205 71.7306 43.4969 60.7176 52.3271L60.7212 52.32ZM49.5768 17.936C51.3312 15.3108 52.4925 12.3258 52.9719 9.18413C54.389 -0.130513 49.1577 1.46883 48.7848 10.1886C48.6925 12.3508 48.8949 14.9546 49.5768 17.9395V17.936ZM53.8811 32.3585C55.6462 37.5092 57.5817 42.5922 59.4071 47.7179C67.6039 41.3027 62.8485 28.7182 53.8811 32.3585Z" fill="url(#paint0_linear_3090_11279)"/>
</g>
<defs>
<linearGradient id="paint0_linear_3090_11279" x1="36.7241" y1="8.12265" x2="62.6199" y2="56.4949" gradientUnits="userSpaceOnUse">
<stop stop-color="white"/>
<stop offset="1" stop-color="#6A777A"/>
</linearGradient>
<clipPath id="clip0_3090_11279">
<rect width="262" height="81" fill="white" transform="translate(0 0.5)"/>
</clipPath>
</defs>
</svg>
